<svg width="199" height="34" viewBox="0 0 199 34" fill="none" xmlns="http://www.w3.org/2000/svg">
<path d="M187.346 8.28223C189.557 8.28223 191.559 8.7627 193.352 9.72366C195.161 10.6694 196.498 11.9506 197.364 13.5675C197.549 13.8878 197.642 14.2539 197.642 14.6657C197.642 15.2911 197.41 15.8326 196.946 16.2902C196.498 16.7325 195.957 16.9537 195.323 16.9537C194.937 16.9537 194.535 16.8317 194.117 16.5876C193.715 16.3283 193.429 16.0309 193.259 15.6953C192.749 14.7496 191.984 14.0403 190.964 13.5675C189.943 13.0946 188.73 12.8582 187.323 12.8582C186.504 12.8582 185.576 12.965 184.54 13.1785C183.505 13.3921 182.608 13.7353 181.851 14.2081C181.093 14.681 180.714 15.3216 180.714 16.13C180.714 16.7249 181.024 17.1978 181.642 17.5486C182.276 17.8842 183.049 18.1435 183.961 18.3265C184.888 18.5096 185.816 18.6468 186.743 18.7384C187.671 18.8146 188.428 18.8833 189.016 18.9443C190.16 19.0663 191.288 19.257 192.401 19.5163C193.514 19.7603 194.535 20.1264 195.462 20.6145C196.39 21.1026 197.124 21.7661 197.665 22.6051C198.222 23.444 198.5 24.5117 198.5 25.8083C198.5 27.6539 197.959 29.164 196.877 30.3385C195.795 31.513 194.411 32.3824 192.726 32.9468C191.041 33.5112 189.279 33.7933 187.439 33.7933C184.919 33.7933 182.624 33.3052 180.552 32.329C178.496 31.3376 176.973 29.8961 175.984 28.0047C175.798 27.6386 175.706 27.2802 175.706 26.9294C175.706 26.304 175.93 25.7701 176.378 25.3278C176.842 24.8702 177.391 24.6414 178.024 24.6414C178.426 24.6414 178.828 24.771 179.23 25.0303C179.648 25.2744 179.941 25.5718 180.111 25.9226C180.714 27.0819 181.642 27.9208 182.894 28.4394C184.162 28.9581 185.669 29.2174 187.416 29.2174C188.343 29.2174 189.302 29.1182 190.291 28.9199C191.296 28.7064 192.139 28.3479 192.819 27.8446C193.514 27.3412 193.862 26.6548 193.862 25.7854C193.862 25.1142 193.561 24.6337 192.958 24.3439C192.37 24.0389 191.659 23.8406 190.825 23.7491C190.005 23.6575 189.24 23.5736 188.529 23.4974C187.169 23.3601 185.762 23.1847 184.309 22.9711C182.855 22.7423 181.503 22.3839 180.251 21.8958C179.014 21.4077 178.009 20.706 177.236 19.7908C176.463 18.8756 176.077 17.6554 176.077 16.13C176.077 14.7572 176.409 13.5751 177.074 12.5837C177.754 11.5922 178.651 10.7838 179.764 10.1584C180.877 9.51774 182.09 9.04489 183.404 8.73983C184.734 8.43476 186.048 8.28223 187.346 8.28223Z" fill="black"/>
<path d="M166.569 30.2933C165.735 31.0865 164.738 31.8873 163.578 32.6957C162.419 33.4889 161.058 33.8855 159.497 33.8855C157.472 33.8855 155.787 33.3593 154.442 32.3068C153.097 31.239 152.107 30.0035 151.474 28.6002C150.979 27.4867 150.678 26.3885 150.569 25.3055C150.477 24.2073 150.43 23.1777 150.43 22.2167V10.6624C150.43 10.037 150.654 9.50312 151.103 9.06077C151.566 8.60317 152.115 8.37437 152.749 8.37437C153.383 8.37437 153.924 8.60317 154.372 9.06077C154.836 9.50312 155.068 10.037 155.068 10.6624V22.2167C155.068 23.1014 155.107 23.9327 155.184 24.7106C155.277 25.4733 155.454 26.1444 155.717 26.7241C156.026 27.3952 156.49 27.9977 157.108 28.5316C157.727 29.0502 158.508 29.3095 159.451 29.3095C161.738 29.3095 163.493 28.4477 164.714 26.7241C165.951 25.0005 166.562 22.6743 166.546 19.7457L166.523 10.6166C166.523 9.99122 166.747 9.45736 167.196 9.01501C167.659 8.55741 168.208 8.32861 168.842 8.32861C169.491 8.32861 170.04 8.55741 170.488 9.01501C170.937 9.45736 171.161 9.99885 171.161 10.6395L171.207 31.6661C171.207 32.2915 171.029 32.833 170.674 33.2906C170.334 33.733 169.847 33.9541 169.213 33.9541C168.579 33.9541 168.092 33.733 167.752 33.2906C167.412 32.833 167.149 32.2915 166.964 31.6661L166.569 30.2933Z" fill="black"/>
<path d="M143.566 0C144.308 0 144.903 0.244053 145.352 0.732158C145.8 1.20501 146.017 1.72362 146.001 2.28799V31.7573C146.001 32.3675 145.754 32.8632 145.259 33.2445C144.78 33.6106 144.301 33.7937 143.821 33.7937C143.157 33.7937 142.577 33.5801 142.082 33.153C141.603 32.7259 141.363 32.1768 141.363 31.5057V2.28799C141.363 1.70837 141.572 1.18213 141.989 0.709278C142.422 0.236426 142.948 0 143.566 0Z" fill="black"/>
<path d="M118.453 33.7257C117.819 33.7257 117.271 33.5121 116.807 33.0851C116.359 32.6427 116.134 32.1165 116.134 31.5063V31.4835L116.118 21.4849H110.305C110.194 21.4849 110.105 21.3954 110.105 21.2849V16.9747C110.105 16.8631 110.196 16.7731 110.308 16.7748L116.111 16.8632L116.088 2.81492C116.088 2.40308 116.281 1.93785 116.668 1.41924C117.07 0.885377 117.642 0.610818 118.384 0.595565L125.688 0.549805C127.945 0.549805 129.993 0.915884 131.833 1.64804C133.688 2.36495 135.157 3.45556 136.239 4.91987C137.337 6.38419 137.885 8.24509 137.885 10.5026C137.885 13.0804 137.313 15.1548 136.169 16.7259C135.025 18.297 133.456 19.4486 131.462 20.1808C129.483 20.9129 127.226 21.3172 124.691 21.3934L120.749 21.4849L120.772 31.5292V31.5521C120.772 32.1622 120.54 32.6808 120.076 33.1079C119.628 33.5198 119.087 33.7257 118.453 33.7257ZM133.248 10.5255C133.248 8.61879 132.56 7.246 131.184 6.40707C129.823 5.56814 127.937 5.14867 125.526 5.14867H120.726L120.749 16.8632L124.621 16.7717C127.342 16.7107 129.46 16.2531 130.975 15.3989C132.49 14.5447 133.248 12.9202 133.248 10.5255Z" fill="black"/>
<path d="M92.6515 8.39746C94.7076 8.39746 96.5936 8.90082 98.3095 9.90754C100.025 10.9143 101.401 12.2718 102.437 13.9802C103.488 15.6733 104.014 17.5571 104.014 19.6315C104.014 20.0586 103.991 20.4933 103.944 20.9357C103.883 21.5 103.62 21.9805 103.156 22.3771C102.708 22.7584 102.197 22.9491 101.625 22.9491L85.4167 22.972C85.6795 24.0702 86.1742 25.0998 86.9007 26.0608C87.6273 27.0217 88.5085 27.7996 89.5442 28.3945C90.5954 28.9894 91.7394 29.2868 92.9761 29.2868C94.3056 29.2868 95.496 28.9665 96.5472 28.3259C97.5984 27.6852 98.4177 26.9455 99.0052 26.1065C99.1907 25.8167 99.4689 25.5727 99.84 25.3744C100.226 25.1761 100.59 25.0769 100.93 25.0769C101.564 25.0769 102.105 25.3057 102.553 25.7633C103.017 26.2209 103.249 26.7624 103.249 27.3878C103.249 27.8759 103.11 28.3106 102.831 28.692C101.873 30.08 100.551 31.285 98.866 32.307C97.1965 33.3137 95.2563 33.8171 93.0457 33.8171C91.2679 33.8171 89.6138 33.4739 88.0833 32.7875C86.5684 32.1011 85.2466 31.163 84.1181 29.9732C82.9896 28.7835 82.1084 27.4183 81.4746 25.8777C80.8562 24.3219 80.5471 22.6822 80.5471 20.9585C80.5471 19.2959 80.8562 17.7172 81.4746 16.2224C82.093 14.7123 82.9509 13.37 84.0485 12.1955C85.1616 11.021 86.4524 10.0982 87.921 9.42706C89.3896 8.74066 90.9665 8.39746 92.6515 8.39746ZM99.2371 18.3731C98.9433 16.8783 98.1858 15.6046 96.9646 14.5522C95.7433 13.4997 94.3056 12.9734 92.6515 12.9734C90.9665 12.9734 89.4747 13.5149 88.1761 14.5979C86.893 15.6809 86.0273 16.9469 85.579 18.396L99.2371 18.3731Z" fill="black"/>
<path d="M79.7354 11.2109C79.7354 12.4311 79.1402 13.1099 77.9499 13.2472C77.517 13.2929 76.9682 13.1557 76.3035 12.8353C75.6387 12.4998 74.9663 12.332 74.2861 12.332C72.9411 12.332 71.8745 12.6752 71.0861 13.3616C70.2976 14.0327 69.7334 14.9403 69.3933 16.0843C69.0532 17.2283 68.8831 18.5096 68.8831 19.9281V31.7341C68.8831 32.4053 68.6744 32.9392 68.257 33.3357C67.8551 33.7323 67.2909 33.9306 66.5643 33.9306C65.8532 33.9306 65.2889 33.7323 64.8715 33.3357C64.4541 32.9392 64.2454 32.3977 64.2454 31.7113V10.6389C64.2454 9.95246 64.4155 9.38809 64.7556 8.94574C65.1111 8.5034 65.5904 8.28223 66.1933 8.28223C66.5488 8.28223 66.9585 8.43476 67.4223 8.73983C67.9015 9.02964 68.2339 9.533 68.4194 10.2499L68.6513 11.8973C68.8522 11.4702 69.2387 10.9744 69.8107 10.4101C70.3827 9.84569 71.0629 9.35758 71.8513 8.94574C72.6397 8.51865 73.459 8.30511 74.3093 8.30511C75.8861 8.30511 77.1847 8.48815 78.2049 8.85422C79.2252 9.20505 79.7354 9.99059 79.7354 11.2109Z" fill="black"/>
<path d="M46.9003 8.21429C48.0442 8.21429 49.1573 8.44309 50.2394 8.90068C51.337 9.34303 52.3109 9.9074 53.1612 10.5938C54.0269 11.2649 54.6685 11.959 55.0858 12.6759L55.3409 10.4794C55.3409 9.85401 55.5264 9.32015 55.8974 8.8778C56.2685 8.42021 56.7709 8.19141 57.4047 8.19141C58.0385 8.19141 58.5796 8.42021 59.0279 8.8778C59.4917 9.32015 59.7236 9.85401 59.7236 10.4794V10.5252L59.6772 31.712C59.6772 32.3374 59.4453 32.8788 58.9815 33.3364C58.5332 33.7788 57.9921 34 57.3583 34C56.7245 34 56.2221 33.7788 55.8511 33.3364C55.4801 32.8788 55.2945 32.3374 55.2945 31.712L55.0395 29.8816C54.2356 31.2391 53.0607 32.2535 51.5148 32.9246C49.9689 33.5805 48.4153 33.9084 46.8539 33.9084C45.107 33.9084 43.4684 33.5729 41.9379 32.9017C40.4075 32.2153 39.0625 31.2773 37.9031 30.0875C36.7437 28.8977 35.8316 27.5326 35.1669 25.992C34.5176 24.4514 34.1929 22.8269 34.1929 21.1186C34.1929 19.4254 34.5098 17.8086 35.1437 16.268C35.7929 14.7122 36.6896 13.3318 37.8335 12.1268C38.993 10.9065 40.3379 9.95316 41.8684 9.26676C43.4143 8.56511 45.0916 8.21429 46.9003 8.21429ZM54.9003 21.0728C54.9003 19.578 54.5448 18.2052 53.8337 16.9544C53.138 15.7036 52.1873 14.6969 50.9815 13.9343C49.7757 13.1716 48.3998 12.7903 46.8539 12.7903C45.3389 12.7903 43.9708 13.1716 42.7495 13.9343C41.5283 14.6969 40.5621 15.7113 39.8509 16.9773C39.1398 18.2281 38.7843 19.5856 38.7843 21.0499C38.7843 22.5295 39.1476 23.9023 39.8741 25.1683C40.6007 26.4191 41.5746 27.4258 42.7959 28.1885C44.0326 28.9511 45.393 29.3325 46.8771 29.3325C48.3612 29.3325 49.7061 28.9511 50.9119 28.1885C52.1332 27.4258 53.0994 26.4191 53.8105 25.1683C54.537 23.9023 54.9003 22.5371 54.9003 21.0728Z" fill="black"/>
<path d="M29.1147 21.2325C29.6712 21.2325 30.1737 21.4537 30.622 21.896C31.0857 22.3231 31.3176 22.8036 31.3176 23.3375C31.3176 23.7645 31.2403 24.1306 31.0857 24.4357C30.3128 26.1136 29.2152 27.677 27.793 29.1261C26.3862 30.5599 24.7089 31.7115 22.761 32.5809C20.8132 33.4504 18.6257 33.8851 16.1987 33.8851C13.8025 33.8851 11.6382 33.4351 9.70587 32.5352C7.77349 31.6352 6.11937 30.4073 4.74351 28.8515C3.38311 27.2804 2.3319 25.4805 1.58986 23.4519C0.863288 21.4079 0.5 19.2496 0.5 16.9768C0.5 14.7346 0.871017 12.5991 1.61305 10.5705C2.35509 8.54177 3.41403 6.74951 4.78989 5.19367C6.16574 3.62258 7.81213 2.38707 9.72906 1.48712C11.646 0.587179 13.7793 0.137207 16.1291 0.137207C18.5098 0.137207 20.6663 0.556672 22.5987 1.3956C24.5466 2.21928 26.2316 3.32514 27.6538 4.71319C29.0915 6.08599 30.2123 7.59606 31.0162 9.24342C31.1862 9.56374 31.2712 9.89931 31.2712 10.2501C31.2712 10.8145 31.0625 11.3331 30.6452 11.806C30.2432 12.2636 29.7717 12.4924 29.2307 12.4924C28.705 12.4924 28.2258 12.3856 27.793 12.172C27.3756 11.9432 27.0587 11.6077 26.8422 11.1653C25.9765 9.39595 24.6161 7.87825 22.761 6.61223C20.9214 5.3462 18.7108 4.71319 16.1291 4.71319C13.8875 4.71319 11.9397 5.27756 10.2856 6.40631C8.64692 7.53505 7.37928 9.0375 6.48265 10.9137C5.58603 12.7746 5.13772 14.8109 5.13772 17.0226C5.13772 19.2496 5.5783 21.2935 6.45947 23.1544C7.35609 25.0153 8.62373 26.5025 10.2624 27.616C11.9165 28.7295 13.8798 29.2862 16.1523 29.2862C17.8528 29.2862 19.4064 28.9812 20.8132 28.371C22.2354 27.7457 23.4644 26.922 24.5002 25.9C25.5359 24.878 26.3244 23.7798 26.8654 22.6053C27.2828 21.6901 28.0326 21.2325 29.1147 21.2325Z" fill="black"/>
</svg>
