<svg width="16" height="16" viewBox="0 0 16 16" fill="none" xmlns="http://www.w3.org/2000/svg">
<path fill-rule="evenodd" clip-rule="evenodd" d="M7.44819 0H8.56819V2.74473C8.38418 2.72535 8.19736 2.71541 8.00822 2.71541C7.81906 2.71541 7.63222 2.72535 7.44819 2.74473V0ZM11.3074 6.74182L9.12887 7.9996L8.56945 7.02932L10.7467 5.7723C10.9819 6.06108 11.1723 6.38778 11.3074 6.74182ZM11.3074 9.25818L9.12885 8.00038L8.56953 8.97072L10.7467 10.2277C10.9819 9.93892 11.1723 9.61222 11.3074 9.25818ZM8.56819 11.4859V8.97095H7.4494L6.88747 8.00041L4.70899 9.25816C4.84408 9.61219 5.03452 9.9389 5.26973 10.2277L7.44819 8.96995V11.4859C7.63058 11.5149 7.81764 11.53 8.00822 11.53C8.19878 11.53 8.38581 11.5149 8.56819 11.4859ZM5.26973 5.77232L7.4474 7.0296L6.88774 7.99974L4.709 6.74184C4.84409 6.38781 5.03453 6.06111 5.26973 5.77232Z" fill="black"/>
<path d="M8.56819 4.51415C8.38581 4.48508 8.19878 4.46998 8.00822 4.46998C7.81764 4.46998 7.63058 4.48508 7.44819 4.51416V7.02904H8.56819V4.51415Z" fill="black"/>
<path d="M1.35999 3.51503L3.73707 4.88743C3.51758 5.1881 3.32907 5.51282 3.17624 5.8569L0.799988 4.48498L1.35999 3.51503Z" fill="black"/>
<path d="M3.17623 10.1431L0.799988 11.515L1.35999 12.485L3.73706 11.1126C3.51757 10.8119 3.32907 10.4872 3.17623 10.1431Z" fill="black"/>
<path d="M7.44819 13.2553V16H8.56819V13.2553C8.38418 13.2747 8.19736 13.2846 8.00822 13.2846C7.81906 13.2846 7.63222 13.2747 7.44819 13.2553Z" fill="black"/>
<path d="M14.6564 12.485L12.2794 11.1126C12.4988 10.8119 12.6874 10.4872 12.8402 10.1431L15.2164 11.515L14.6564 12.485Z" fill="black"/>
<path d="M12.8402 5.85688L15.2164 4.48497L14.6564 3.51502L12.2793 4.88741C12.4988 5.18808 12.6873 5.5128 12.8402 5.85688Z" fill="black"/>
</svg>
